<?xml version="1.0" encoding="utf-8"?>
<!-- Generator: Adobe Illustrator 19.0.0, SVG Export Plug-In . SVG Version: 6.00 Build 0)  -->
<svg version="1.1" id="Layer_1" xmlns="http://www.w3.org/2000/svg" xmlns:xlink="http://www.w3.org/1999/xlink" x="0px" y="0px"
	 viewBox="0 0 814.5 184.2" style="enable-background:new 0 0 814.5 184.2;" xml:space="preserve">
<style type="text/css">
	.st0{clip-path:url(#XMLID_33_);}
	.st1{opacity:0.77;clip-path:url(#XMLID_34_);}
	.st2{clip-path:url(#XMLID_35_);fill:none;stroke:#E2E3E4;stroke-width:3.097;stroke-miterlimit:26.883;}
</style>
<g id="XMLID_2_">
	<defs>
		<rect id="XMLID_3_" x="36.6" y="38.5" width="743.7" height="110.6"/>
	</defs>
	<clipPath id="XMLID_33_">
		<use xlink:href="#XMLID_3_"  style="overflow:visible;"/>
	</clipPath>
	<g id="XMLID_4_" class="st0">
		<defs>
			<rect id="XMLID_5_" x="36.6" y="38.5" width="743.7" height="110.6"/>
		</defs>
		<clipPath id="XMLID_34_">
			<use xlink:href="#XMLID_5_"  style="overflow:visible;"/>
		</clipPath>
		<g id="XMLID_6_" class="st1">
			<g id="XMLID_7_">
				<defs>
					<rect id="XMLID_8_" x="27.6" y="31.5" width="761.7" height="118.6"/>
				</defs>
				<clipPath id="XMLID_35_">
					<use xlink:href="#XMLID_8_"  style="overflow:visible;"/>
				</clipPath>
				<path id="XMLID_9_" class="st2" d="M778.5,40.1h-89.6l-18.7,107.5h89.4l5.7-32.2H708l1.6-9h57.3l4.3-25.1h-57.3l1.6-9h57.3
					L778.5,40.1z M669.9,115.3h-57.3l13.2-75.3h-32.3l-18.7,107.5h89.4L669.9,115.3z M577.8,46c-3.9-3.9-9-5.9-15-5.9h-77.1
					l-18.7,107.5h76.9c6.9,0,13.3-2.4,19.1-7.3c5.8-5,9.3-11,10.5-17.8l2.9-16.1v-1.8c0-3-1.6-6.6-4.9-10.8
					c5.5-4.6,8.6-8.8,9.1-12.5l2.9-16.1c0.1-0.7,0.2-1.4,0.2-2.1c0.1-0.7,0.1-1.4,0.1-2.1C583.7,54.9,581.7,49.9,577.8,46z
					 M549.8,72.3l-1.6,9h-37.6l1.6-9H549.8z M543.9,106.4l-1.6,9h-37.6l1.6-9H543.9z M479.9,40.1h-32.3l-18.7,107.5H461L479.9,40.1z
					 M446.5,40.1h-37.6l-20.4,24.7l-11.9-24.7H339l25.4,53.7l-44.3,53.8h37.4l20.5-24.7l11.8,24.7h37.6L402,93.8L446.5,40.1z
					 M337.6,40.1H248l-18.7,107.5h89.4l5.8-32.2H267l1.6-9H326l4.3-25.1H273l1.6-9h57.3L337.6,40.1z M229,115.3h-57.3l13.2-75.3
					h-32.3l-18.7,107.5h89.4L229,115.3z M146.9,40.1H57.2L38.5,147.6h32.1l7.3-41.2h57.3l4.3-25.1H82.2l1.6-9h57.3L146.9,40.1z"/>
			</g>
		</g>
	</g>
</g>
</svg>
