<svg xmlns="http://www.w3.org/2000/svg" xmlns:xlink="http://www.w3.org/1999/xlink" width="748.34" height="114.6" viewBox="0 0 748.34 114.6"><defs><clipPath id="a" transform="translate(-6.74 -5)"><rect width="761.7" height="118.6" style="fill:none"/></clipPath></defs><title>flexible-small</title><g style="opacity:0.7699999809265137"><g style="clip-path:url(#a)"><path d="M750.9,8.6H661.3L642.6,116.1H732l5.7-32.2H680.4l1.6-9h57.3l4.3-25.1H686.3l1.6-9h57.3ZM642.3,83.8H585L598.2,8.5H565.9L547.2,116h89.4ZM550.2,14.5a20.51,20.51,0,0,0-15-5.9H458.1L439.4,116.1h76.9a29,29,0,0,0,19.1-7.3A30.09,30.09,0,0,0,545.9,91l2.9-16.1V73.1c0-3-1.6-6.6-4.9-10.8,5.5-4.6,8.6-8.8,9.1-12.5l2.9-16.1a14.92,14.92,0,0,0,.2-2.1,14.77,14.77,0,0,0,.1-2.1Q556.05,20.35,550.2,14.5Zm-28,26.3-1.6,9H483l1.6-9Zm-5.9,34.1-1.6,9H477.1l1.6-9Zm-64-66.3H420L401.3,116.1h32.1Zm-33.4,0H381.3L360.9,33.3,349,8.6H311.4l25.4,53.7-44.3,53.8h37.4l20.5-24.7,11.8,24.7h37.6L374.4,62.3ZM310,8.6H220.4L201.7,116.1h89.4l5.8-32.2H239.4l1.6-9h57.4l4.3-25.1H245.4l1.6-9h57.3ZM201.4,83.8H144.1L157.3,8.5H125L106.3,116h89.4ZM119.3,8.6H29.6L10.9,116.1H43l7.3-41.2h57.3l4.3-25.1H54.6l1.6-9h57.3Z" transform="translate(-6.74 -5)" style="fill:none;stroke:#e2e3e4;stroke-miterlimit:26.882999420166016;stroke-width:7px"/></g></g></svg>